# xmcd
#
# Track frame offsets:
#	150
#	21994
#	37594
#	56499
#	77951
#	92218
#	110337
#	127122
#	136723
#	156699
#
# Disc length: 2320 seconds
#
# Revision: 1
# Processed by: cddbd v1.5.2PL0 Copyright (c) Steve Scherf et al.
# Submitted via: audiograbber 1.83.01
#
DISCID=81090e0a
DTITLE=Various Artist - Pickin' On Santana
DYEAR=2000
DGENRE=Bluegrass
TTITLE0=Put Your Lights On
TTITLE1=She's Not There
TTITLE2=Jingo
TTITLE3=Soul Sacrifice
TTITLE4=Evil Ways
TTITLE5=Black Magic Woman
TTITLE6=Samba Pa Ti
TTITLE7=Persuasion
TTITLE8=Hope You're Feeling Better
TTITLE9=Oye Como Va
EXTD=
EXTT0=
EXTT1=
EXTT2=
EXTT3=
EXTT4=
EXTT5=
EXTT6=
EXTT7=
EXTT8=
EXTT9=
PLAYORDER=
